<mxfile host="app.diagrams.net" modified="2023-09-29T09:23:21.493Z" agent="Mozilla/5.0 (Windows NT 10.0; Win64; x64) AppleWebKit/537.36 (KHTML, like Gecko) Chrome/117.0.0.0 Safari/537.36 Edg/117.0.2045.43" etag="4q5Bo6zP6AXfybmuy0mv" version="22.0.0" type="device">
  <diagram name="PÃ¡gina-1" id="iIbF7k62jLLneHntYNp9">
    <mxGraphModel dx="389" dy="480" grid="1" gridSize="10" guides="1" tooltips="1" connect="1" arrows="1" fold="1" page="1" pageScale="1" pageWidth="827" pageHeight="1169" math="0" shadow="0">
      <root>
        <mxCell id="0" />
        <mxCell id="1" parent="0" />
        <mxCell id="ssk2gsWMVoaEE1Ip2700-1" value="Inicio" style="rounded=1;whiteSpace=wrap;html=1;arcSize=50;" vertex="1" parent="1">
          <mxGeometry x="320" y="30" width="120" height="60" as="geometry" />
        </mxCell>
        <mxCell id="ssk2gsWMVoaEE1Ip2700-2" value="leer numero A" style="rounded=0;whiteSpace=wrap;html=1;" vertex="1" parent="1">
          <mxGeometry x="320" y="130" width="120" height="60" as="geometry" />
        </mxCell>
        <mxCell id="ssk2gsWMVoaEE1Ip2700-3" value="leer numero B" style="rounded=0;whiteSpace=wrap;html=1;" vertex="1" parent="1">
          <mxGeometry x="320" y="220" width="120" height="60" as="geometry" />
        </mxCell>
        <mxCell id="ssk2gsWMVoaEE1Ip2700-4" value="compara numero" style="rhombus;whiteSpace=wrap;html=1;" vertex="1" parent="1">
          <mxGeometry x="320" y="300" width="120" height="110" as="geometry" />
        </mxCell>
        <mxCell id="ssk2gsWMVoaEE1Ip2700-5" value="mostrar B&lt;br&gt;mostrar A" style="shape=parallelogram;perimeter=parallelogramPerimeter;whiteSpace=wrap;html=1;fixedSize=1;" vertex="1" parent="1">
          <mxGeometry x="170" y="420" width="120" height="60" as="geometry" />
        </mxCell>
        <mxCell id="ssk2gsWMVoaEE1Ip2700-6" value="mostrar A&lt;br&gt;mostrar B" style="shape=parallelogram;perimeter=parallelogramPerimeter;whiteSpace=wrap;html=1;fixedSize=1;" vertex="1" parent="1">
          <mxGeometry x="450" y="420" width="120" height="60" as="geometry" />
        </mxCell>
        <mxCell id="ssk2gsWMVoaEE1Ip2700-7" value="" style="ellipse;whiteSpace=wrap;html=1;aspect=fixed;" vertex="1" parent="1">
          <mxGeometry x="333.5" y="470" width="80" height="80" as="geometry" />
        </mxCell>
        <mxCell id="ssk2gsWMVoaEE1Ip2700-8" value="Fin" style="rounded=1;whiteSpace=wrap;html=1;arcSize=50;" vertex="1" parent="1">
          <mxGeometry x="313.5" y="585" width="120" height="60" as="geometry" />
        </mxCell>
        <mxCell id="ssk2gsWMVoaEE1Ip2700-9" value="" style="endArrow=none;html=1;rounded=0;exitX=0.5;exitY=0;exitDx=0;exitDy=0;" edge="1" parent="1" source="ssk2gsWMVoaEE1Ip2700-2">
          <mxGeometry width="50" height="50" relative="1" as="geometry">
            <mxPoint x="333.5" y="140" as="sourcePoint" />
            <mxPoint x="383.5" y="90" as="targetPoint" />
          </mxGeometry>
        </mxCell>
        <mxCell id="ssk2gsWMVoaEE1Ip2700-11" value="" style="endArrow=none;html=1;rounded=0;exitX=0.5;exitY=0;exitDx=0;exitDy=0;" edge="1" parent="1" source="ssk2gsWMVoaEE1Ip2700-3">
          <mxGeometry width="50" height="50" relative="1" as="geometry">
            <mxPoint x="333.5" y="240" as="sourcePoint" />
            <mxPoint x="383.5" y="190" as="targetPoint" />
          </mxGeometry>
        </mxCell>
        <mxCell id="ssk2gsWMVoaEE1Ip2700-12" value="" style="endArrow=none;html=1;rounded=0;exitX=0.5;exitY=0;exitDx=0;exitDy=0;" edge="1" parent="1" source="ssk2gsWMVoaEE1Ip2700-4">
          <mxGeometry width="50" height="50" relative="1" as="geometry">
            <mxPoint x="330" y="330" as="sourcePoint" />
            <mxPoint x="380" y="280" as="targetPoint" />
          </mxGeometry>
        </mxCell>
        <mxCell id="ssk2gsWMVoaEE1Ip2700-13" value="" style="endArrow=none;html=1;rounded=0;" edge="1" parent="1" source="ssk2gsWMVoaEE1Ip2700-5">
          <mxGeometry width="50" height="50" relative="1" as="geometry">
            <mxPoint x="200" y="350" as="sourcePoint" />
            <mxPoint x="320" y="350" as="targetPoint" />
            <Array as="points">
              <mxPoint x="230" y="350" />
            </Array>
          </mxGeometry>
        </mxCell>
        <mxCell id="ssk2gsWMVoaEE1Ip2700-14" value="" style="endArrow=none;html=1;rounded=0;entryX=0.842;entryY=-0.044;entryDx=0;entryDy=0;entryPerimeter=0;" edge="1" parent="1" target="ssk2gsWMVoaEE1Ip2700-6">
          <mxGeometry width="50" height="50" relative="1" as="geometry">
            <mxPoint x="440" y="360" as="sourcePoint" />
            <mxPoint x="560" y="350" as="targetPoint" />
            <Array as="points">
              <mxPoint x="550" y="360" />
            </Array>
          </mxGeometry>
        </mxCell>
        <mxCell id="ssk2gsWMVoaEE1Ip2700-15" value="Si A&amp;gt;B" style="text;html=1;strokeColor=none;fillColor=none;align=center;verticalAlign=middle;whiteSpace=wrap;rounded=0;" vertex="1" parent="1">
          <mxGeometry x="230" y="320" width="60" height="30" as="geometry" />
        </mxCell>
        <mxCell id="ssk2gsWMVoaEE1Ip2700-16" value="si B&amp;gt;A" style="text;html=1;strokeColor=none;fillColor=none;align=center;verticalAlign=middle;whiteSpace=wrap;rounded=0;" vertex="1" parent="1">
          <mxGeometry x="480" y="320" width="60" height="30" as="geometry" />
        </mxCell>
        <mxCell id="ssk2gsWMVoaEE1Ip2700-17" value="" style="endArrow=none;html=1;rounded=0;entryX=0;entryY=0;entryDx=0;entryDy=0;" edge="1" parent="1" target="ssk2gsWMVoaEE1Ip2700-7">
          <mxGeometry width="50" height="50" relative="1" as="geometry">
            <mxPoint x="270" y="480" as="sourcePoint" />
            <mxPoint x="320" y="430" as="targetPoint" />
          </mxGeometry>
        </mxCell>
        <mxCell id="ssk2gsWMVoaEE1Ip2700-18" value="" style="endArrow=none;html=1;rounded=0;exitX=1;exitY=0;exitDx=0;exitDy=0;" edge="1" parent="1" source="ssk2gsWMVoaEE1Ip2700-7">
          <mxGeometry width="50" height="50" relative="1" as="geometry">
            <mxPoint x="400" y="530" as="sourcePoint" />
            <mxPoint x="450" y="480" as="targetPoint" />
          </mxGeometry>
        </mxCell>
        <mxCell id="ssk2gsWMVoaEE1Ip2700-19" value="" style="endArrow=none;html=1;rounded=0;exitX=0.5;exitY=0;exitDx=0;exitDy=0;" edge="1" parent="1" source="ssk2gsWMVoaEE1Ip2700-8">
          <mxGeometry width="50" height="50" relative="1" as="geometry">
            <mxPoint x="320" y="600" as="sourcePoint" />
            <mxPoint x="370" y="550" as="targetPoint" />
          </mxGeometry>
        </mxCell>
      </root>
    </mxGraphModel>
  </diagram>
</mxfile>
